<svg width="60" height="60" viewBox="0 0 60 60" fill="none" xmlns="http://www.w3.org/2000/svg">
    <path fill-rule="evenodd" clip-rule="evenodd" d="M38.438 20.625H28.124V10.312l10.313 10.313zM30 7.5H15a3.737 3.737 0 0 0-3.75 3.75v30A3.75 3.75 0 0 0 15 45h19.184a3.476 3.476 0 0 1-1.371-2.786v-6.858h-.938V37.5H15v-3.75h14.068c-.648-1.103-.706-2.575.067-3.75H15v-3.75h17.644l4.421-4.62a3.273 3.273 0 0 1 1.064-.744 3.151 3.151 0 0 1 3.121.35V18.75L30 7.5z" fill="#EF4281"/>
    <path d="M36.16 43.845h6.43c.883 0 1.606-.763 1.606-1.695v-8.475h2.556c1.43 0 2.153-1.831 1.14-2.899l-7.376-7.78a1.6 1.6 0 0 0-.52-.367 1.53 1.53 0 0 0-1.226 0 1.6 1.6 0 0 0-.52.367l-7.377 7.78c-1.012 1.068-.305 2.899 1.125 2.899h2.556v8.475c0 .932.723 1.695 1.607 1.695zm-6.428 3.39h19.286c.884 0 1.607.763 1.607 1.695s-.723 1.695-1.607 1.695H29.732c-.884 0-1.607-.763-1.607-1.695s.723-1.695 1.607-1.695z" fill="#EF4281"/>
</svg>
